<svg width="24" height="24" viewBox="0 0 24 24" fill="none" xmlns="http://www.w3.org/2000/svg">
<path d="M11.5 13.762L12.194 17.928C12.419 19.281 11.376 20.512 10.005 20.512V20.512C8.92 20.512 7.994 19.728 7.816 18.657L7 13.762" stroke="#007BFC" stroke-width="1.5" stroke-linecap="round" stroke-linejoin="round"/>
<path d="M13.75 13.762H5.875C4.011 13.762 2.5 12.251 2.5 10.387V10.387C2.5 8.52296 4.011 7.01196 5.875 7.01196H13.75" stroke="#007BFC" stroke-width="1.5" stroke-linecap="round" stroke-linejoin="round"/>
<path d="M13.75 7.01212L18.751 3.67812C19.499 3.18012 20.5 3.71612 20.5 4.61512V16.1601C20.5 17.0591 19.499 17.5941 18.751 17.0961L13.75 13.7621" stroke="#007BFC" stroke-width="1.5" stroke-linecap="round" stroke-linejoin="round"/>
<path d="M13.75 13.76V7.01001" stroke="#007BFC" stroke-width="1.5" stroke-linecap="round" stroke-linejoin="round"/>
</svg>
