<svg width="24" height="24" viewBox="0 0 24 24" fill="none" xmlns="http://www.w3.org/2000/svg">
<path fill-rule="evenodd" clip-rule="evenodd" d="M14.6281 16H9.37205C9.13205 16 8.90005 16.086 8.71805 16.243L5.16705 19.312C3.74605 20.54 1.56905 19.313 1.88805 17.463C2.46605 14.11 3.05305 10.703 3.63805 7.318C3.96905 5.401 5.63205 4 7.57905 4H16.4221C18.3681 4 20.0321 5.401 20.3631 7.319C20.9481 10.704 21.5351 14.111 22.1131 17.464C22.4321 19.315 20.2541 20.541 18.8341 19.313L15.2831 16.244C15.1001 16.086 14.8681 16 14.6281 16Z" stroke="white" stroke-width="1.5" stroke-linecap="round" stroke-linejoin="round"/>
<path d="M6 10H10" stroke="white" stroke-width="1.5" stroke-linecap="round" stroke-linejoin="round"/>
<path d="M8 8V12" stroke="white" stroke-width="1.5" stroke-linecap="round" stroke-linejoin="round"/>
<path d="M15.999 7.75C15.861 7.75 15.749 7.862 15.75 8C15.75 8.138 15.862 8.25 16 8.25C16.138 8.25 16.25 8.138 16.25 8C16.25 7.862 16.138 7.75 15.999 7.75" stroke="white" stroke-width="1.5" stroke-linecap="round" stroke-linejoin="round"/>
<path d="M17.999 9.75C17.861 9.75 17.749 9.862 17.75 10C17.75 10.138 17.862 10.25 18 10.25C18.138 10.25 18.25 10.138 18.25 10C18.25 9.862 18.138 9.75 17.999 9.75" stroke="white" stroke-width="1.5" stroke-linecap="round" stroke-linejoin="round"/>
<path d="M15.999 11.75C15.861 11.75 15.749 11.862 15.75 12C15.75 12.138 15.862 12.25 16 12.25C16.138 12.25 16.25 12.138 16.25 12C16.25 11.862 16.138 11.75 15.999 11.75" stroke="white" stroke-width="1.5" stroke-linecap="round" stroke-linejoin="round"/>
<path d="M13.999 9.75C13.861 9.75 13.749 9.862 13.75 10C13.75 10.138 13.862 10.25 14 10.25C14.138 10.25 14.25 10.138 14.25 10C14.25 9.862 14.138 9.75 13.999 9.75" stroke="white" stroke-width="1.5" stroke-linecap="round" stroke-linejoin="round"/>
</svg>
