<svg width="24" height="24" viewBox="0 0 24 24" fill="none" xmlns="http://www.w3.org/2000/svg">
<path fill-rule="evenodd" clip-rule="evenodd" d="M14.5 20V14.5C14.5 13.9477 14.0523 13.5 13.5 13.5H10.5C9.94772 13.5 9.5 13.9477 9.5 14.5V20C9.5 20.5523 9.05228 21 8.5 21H4.5C3.67157 21 3 20.3284 3 19.5V10.4748C3 9.85955 3.2832 9.27851 3.76786 8.89945L10.7679 3.42463C11.4917 2.85846 12.5083 2.85846 13.2322 3.42463L20.2322 8.89943C20.7168 9.27849 21 9.85954 21 10.4748V19.5C21 20.3284 20.3284 21 19.5 21H15.5C14.9477 21 14.5 20.5523 14.5 20Z" stroke="#007CFF" stroke-width="1.5" stroke-linecap="round" stroke-linejoin="round"/>
</svg>
